<svg xmlns="http://www.w3.org/2000/svg" version="1.1" viewBox="-5.0 -10.0 110.0 135.0">
 <path d="m71.875 7.8945h-36.387l-17.438 17.773v56.383h10.074v10.051l53.824 0.003907v-74.156h-10.074zm-36.98 5.0547v11.789h-11.562zm-13.719 65.977v-51.043l16.844 0.003907v-16.867h30.73v67.906zm57.648-57.852v67.906h-47.574v-6.9297h40.625v-60.977zm-41.969 37.883h25.219v3.125h-25.219zm-4.168 3.125h-7.1562v-3.125h7.1562zm20.938 2.9258h8.4492v3.125l-8.4492 0.003907zm-4.168 3.125h-23.957v-3.125h23.957zm-13 2.9414h25.617v3.125h-25.617zm-10.906 0h6.7422v3.125h-6.7617zm11.68-19.398-7.3633-8.25 7.3633-8.2383 2.332 2.082-5.5117 6.1562 5.5312 6.168zm13.156-2.082 5.5117-6.168-5.5117-6.1562 2.332-2.082 7.3633 8.2383-7.3633 8.25zm-5.3438 1.3438-3.0625-0.61328 2.9258-14.406 3.0625 0.625z"/>
<text x="0.0" y="117.5" font-size="5.0" font-weight="bold" font-family="Arbeit Regular, Helvetica, Arial-Unicode, Arial, Sans-serif" fill="#000000">Created by Ardhian Rama</text><text x="0.0" y="122.5" font-size="5.0" font-weight="bold" font-family="Arbeit Regular, Helvetica, Arial-Unicode, Arial, Sans-serif" fill="#000000">from Noun Project</text></svg>